<?xml version="1.0" standalone="no"?><!DOCTYPE svg PUBLIC "-//W3C//DTD SVG 1.1//EN" "http://www.w3.org/Graphics/SVG/1.1/DTD/svg11.dtd"><svg t="1497346736231" class="icon" style="" viewBox="0 0 1024 1024" version="1.1" xmlns="http://www.w3.org/2000/svg" p-id="2999" xmlns:xlink="http://www.w3.org/1999/xlink" width="22" height="22"><defs><style type="text/css"></style></defs><path d="M737.725 458.868c-147.506 0-267.087 119.58-267.087 267.087 0 147.506 119.582 267.087 267.087 267.087 147.508 0 267.087-119.582 267.087-267.087 0.001-147.508-119.579-267.087-267.087-267.087v0zM904.889 750.994h-167.389c-5.033 0-9.475-2.329-12.494-5.937-2.439-2.861-3.965-6.5-3.965-10.524v-0.153c0-0.031-0.007-0.058-0.007-0.082s0.007-0.051 0.007-0.084l-0.007-167.088c0.007-9.097 7.482-16.45 16.701-16.45 9.216 0 16.704 7.36 16.704 16.45l-0.011 150.479h150.455c9.107 0 16.485 7.462 16.468 16.692-0.002 9.223-7.361 16.693-16.462 16.693v0z" p-id="3000" fill="#1ab394"></path><path d="M648.055 432.126c27.522-8.231 56.679-12.676 86.879-12.676 2.847 0 5.683 0.048 8.512 0.124v-24.271h-95.39v36.822z" p-id="3001" fill="#1ab394"></path><path d="M471.946 872.173h-364.363v-540.47h699.436v96.409c34.471 8.421 66.627 22.739 95.335 41.835v-297.182c0-35.153-28.48-63.603-63.577-63.603h-95.388v31.788c0 52.634-42.676 95.337-95.39 95.337-52.633 0-95.335-42.678-95.335-95.337v-31.788h-190.753v31.788c0 52.634-42.704 95.337-95.361 95.337-52.661 0-95.39-42.678-95.39-95.337v-31.788h-95.364c-35.124 0-63.575 28.48-63.575 63.603v699.408c0 35.124 28.478 95.388 63.575 95.388h481.878c-34.921-25.269-64.239-57.798-85.727-95.388z" p-id="3002" fill="#1ab394"></path><path d="M265.561 204.578c34.563 0 62.56-28.052 62.56-62.614v-65.578c0-34.615-27.997-62.613-62.56-62.613-34.59 0-62.614 28.050-62.614 62.613v65.578c0 34.562 28.022 62.614 62.614 62.614z" p-id="3003" fill="#1ab394"></path><path d="M647.038 204.578c34.59 0 62.614-28.052 62.617-62.614v-65.578c0-34.615-28.025-62.613-62.617-62.613-34.563 0-62.56 28.050-62.56 62.613v65.578c-0.001 34.562 27.996 62.614 62.56 62.614z" p-id="3004" fill="#1ab394"></path><path d="M330.149 554.244h95.337v95.388h-95.337v-95.388z" p-id="3005" fill="#1ab394"></path><path d="M489.086 490.639h50.851c13.844-11.673 28.738-22.139 44.541-31.209v-64.129h-95.39v95.335z" p-id="3006" fill="#1ab394"></path><path d="M171.159 713.232h95.39v95.338h-95.39v-95.338z" p-id="3007" fill="#1ab394"></path><path d="M171.159 395.304h95.39v95.335h-95.39v-95.335z" p-id="3008" fill="#1ab394"></path><path d="M330.149 713.232h95.337v95.338h-95.337v-95.338z" p-id="3009" fill="#1ab394"></path><path d="M171.159 554.244h95.39v95.388h-95.39v-95.388z" p-id="3010" fill="#1ab394"></path><path d="M330.149 395.304h95.337v95.335h-95.337v-95.335z" p-id="3011" fill="#1ab394"></path></svg>