<?xml version="1.0" encoding="iso-8859-1"?>
<!-- Generator: Adobe Illustrator 16.0.0, SVG Export Plug-In . SVG Version: 6.00 Build 0)  -->
<!DOCTYPE svg PUBLIC "-//W3C//DTD SVG 1.1//EN" "http://www.w3.org/Graphics/SVG/1.1/DTD/svg11.dtd">
<svg version="1.1" id="&#x56FE;&#x5C42;_1" xmlns="http://www.w3.org/2000/svg" xmlns:xlink="http://www.w3.org/1999/xlink" x="0px"
	 y="0px" width="54.5px" height="53.75px" viewBox="0 0 54.5 53.75" style="enable-background:new 0 0 54.5 53.75;"
	 xml:space="preserve">
<path style="fill:#666666;" d="M29.5,51.25c0,0.553-0.447,1-1,1l0,0c-0.553,0-1-0.447-1-1v-48c0-0.553,0.447-1,1-1l0,0
	c0.553,0,1,0.447,1,1V51.25z"/>
<path style="fill:#666666;" d="M53,27.5c0,0.552-0.447,1-1,1H4c-0.552,0-1-0.448-1-1l0,0c0-0.552,0.448-1,1-1h48
	C52.553,26.5,53,26.948,53,27.5L53,27.5z"/>
</svg>
